<svg width="36" height="36" viewBox="0 0 36 36" fill="none" xmlns="http://www.w3.org/2000/svg">
<path d="M12.6 16.2001C12.6 15.2453 12.9793 14.3296 13.6544 13.6545C14.3296 12.9794 15.2452 12.6001 16.2 12.6001H27C27.9548 12.6001 28.8705 12.9794 29.5456 13.6545C30.2207 14.3296 30.6 15.2453 30.6 16.2001V27.0001C30.6 27.9549 30.2207 28.8706 29.5456 29.5457C28.8705 30.2208 27.9548 30.6001 27 30.6001H16.2C15.2452 30.6001 14.3296 30.2208 13.6544 29.5457C12.9793 28.8706 12.6 27.9549 12.6 27.0001V16.2001Z" fill="#AFC170"/>
<path d="M8.99999 5.3999C8.04521 5.3999 7.12954 5.77919 6.45441 6.45432C5.77928 7.12945 5.39999 8.04512 5.39999 8.9999V19.7999C5.39999 20.7547 5.77928 21.6704 6.45441 22.3455C7.12954 23.0206 8.04521 23.3999 8.99999 23.3999V8.9999H23.4C23.4 8.04512 23.0207 7.12945 22.3456 6.45432C21.6704 5.77919 20.7548 5.3999 19.8 5.3999H8.99999Z" fill="#AFC170"/>
</svg>
