<svg width="36" height="37" viewBox="0 0 36 37" fill="none" xmlns="http://www.w3.org/2000/svg">
<path fill-rule="evenodd" clip-rule="evenodd" d="M5.40002 31.1001C5.40002 30.6227 5.58967 30.1649 5.92723 29.8273C6.2648 29.4897 6.72263 29.3001 7.20002 29.3001H28.8C29.2774 29.3001 29.7353 29.4897 30.0728 29.8273C30.4104 30.1649 30.6 30.6227 30.6 31.1001C30.6 31.5775 30.4104 32.0353 30.0728 32.3729C29.7353 32.7105 29.2774 32.9001 28.8 32.9001H7.20002C6.72263 32.9001 6.2648 32.7105 5.92723 32.3729C5.58967 32.0353 5.40002 31.5775 5.40002 31.1001ZM11.3274 17.2275C11.665 16.89 12.1227 16.7005 12.6 16.7005C13.0773 16.7005 13.5351 16.89 13.8726 17.2275L16.2 19.5549V5.9001C16.2 5.42271 16.3897 4.96487 16.7272 4.62731C17.0648 4.28974 17.5226 4.1001 18 4.1001C18.4774 4.1001 18.9353 4.28974 19.2728 4.62731C19.6104 4.96487 19.8 5.42271 19.8 5.9001V19.5549L22.1274 17.2275C22.2935 17.0556 22.4921 16.9185 22.7117 16.8241C22.9313 16.7298 23.1675 16.6801 23.4065 16.678C23.6455 16.676 23.8825 16.7215 24.1037 16.812C24.325 16.9025 24.5259 17.0362 24.6949 17.2052C24.8639 17.3742 24.9976 17.5752 25.0881 17.7964C25.1786 18.0176 25.2242 18.2546 25.2221 18.4936C25.22 18.7326 25.1703 18.9688 25.076 19.1884C24.9817 19.408 24.8445 19.6067 24.6726 19.7727L19.2726 25.1727C18.9351 25.5101 18.4773 25.6997 18 25.6997C17.5227 25.6997 17.065 25.5101 16.7274 25.1727L11.3274 19.7727C10.99 19.4351 10.8004 18.9774 10.8004 18.5001C10.8004 18.0228 10.99 17.565 11.3274 17.2275Z" fill="#AFC170"/>
</svg>
