<svg width="40" height="40" viewBox="0 0 40 40" fill="none" xmlns="http://www.w3.org/2000/svg">
<path fill-rule="evenodd" clip-rule="evenodd" d="M28.486 11.5141C26.8839 9.9129 24.8614 8.79788 22.6522 8.29788C20.443 7.79789 18.1375 7.93334 16.002 8.68859C13.8666 9.44383 11.9885 10.788 10.585 12.5658C9.18137 14.3435 8.30957 16.4822 8.07036 18.7345C7.83115 20.9869 8.23429 23.261 9.23318 25.2939C10.2321 27.3268 11.7859 29.0354 13.7151 30.2224C15.6442 31.4093 17.8699 32.026 20.1348 32.0011C22.3997 31.9763 24.6113 31.311 26.514 30.0821C26.7343 29.931 26.9825 29.8257 27.2442 29.7721C27.5058 29.7186 27.7755 29.718 28.0374 29.7704C28.2992 29.8228 28.548 29.9271 28.7689 30.0772C28.9898 30.2273 29.1784 30.42 29.3236 30.6442C29.4688 30.8683 29.5676 31.1193 29.6143 31.3822C29.6609 31.6452 29.6544 31.9148 29.5952 32.1752C29.5359 32.4356 29.4251 32.6815 29.2693 32.8984C29.1135 33.1153 28.9159 33.2988 28.688 33.4381C25.7014 35.3693 22.1565 36.2504 18.6133 35.9421C15.0701 35.6339 11.7306 34.1539 9.12241 31.736C6.51418 29.318 4.78593 26.1 4.21067 22.5902C3.63542 19.0805 4.24596 15.4791 5.94584 12.3551C7.64573 9.23102 10.338 6.7624 13.5975 5.3392C16.8569 3.916 20.4976 3.61936 23.9444 4.49614C27.3912 5.37292 30.4476 7.37313 32.6308 10.1808C34.814 12.9884 35.9995 16.4435 36 20.0001C36.0004 21.1145 35.6904 22.207 35.1047 23.1552C34.519 24.1033 33.6809 24.8696 32.6842 25.3682C31.6875 25.8667 30.5716 26.0778 29.4617 25.9779C28.3517 25.8779 27.2916 25.4707 26.4 24.8021C25.2603 26.3217 23.6171 27.3862 21.7643 27.8051C19.9116 28.224 17.9702 27.97 16.2876 27.0885C14.605 26.207 13.2909 24.7556 12.5805 22.9939C11.8701 21.2323 11.8098 19.2753 12.4102 17.4732C13.0107 15.6711 14.2328 14.1414 15.8578 13.1579C17.4829 12.1744 19.4049 11.8012 21.28 12.1051C23.155 12.409 24.8608 13.3702 26.092 14.8167C27.3232 16.2632 27.9995 18.1005 28 20.0001C28 20.5305 28.2107 21.0392 28.5858 21.4143C28.9609 21.7893 29.4696 22.0001 30 22.0001C30.5304 22.0001 31.0391 21.7893 31.4142 21.4143C31.7893 21.0392 32 20.5305 32 20.0001C32 16.9261 30.828 13.8601 28.486 11.5141ZM24 20.0001C24 18.9392 23.5786 17.9218 22.8284 17.1716C22.0783 16.4215 21.0609 16.0001 20 16.0001C18.9391 16.0001 17.9217 16.4215 17.1716 17.1716C16.4214 17.9218 16 18.9392 16 20.0001C16 21.0609 16.4214 22.0783 17.1716 22.8285C17.9217 23.5786 18.9391 24.0001 20 24.0001C21.0609 24.0001 22.0783 23.5786 22.8284 22.8285C23.5786 22.0783 24 21.0609 24 20.0001Z" fill="black"/>
</svg>
