<svg width="40" height="40" viewBox="0 0 40 40" fill="none" xmlns="http://www.w3.org/2000/svg">
<path d="M33.805 17.26H19.9267V23.0116H27.9133C27.17 26.6666 24.0583 28.7666 19.9267 28.7666C18.7705 28.7686 17.6254 28.5423 16.557 28.1008C15.4885 27.6592 14.5177 27.0111 13.7003 26.1935C12.8829 25.3759 12.2349 24.405 11.7936 23.3365C11.3522 22.2679 11.1261 21.1228 11.1283 19.9666C11.1263 18.8107 11.3526 17.6657 11.794 16.5973C12.2355 15.529 12.8835 14.5583 13.7009 13.7409C14.5183 12.9235 15.489 12.2755 16.5573 11.834C17.6257 11.3926 18.7707 11.1663 19.9267 11.1683C22.025 11.1683 23.9217 11.9133 25.41 13.1316L29.7433 8.79998C27.1033 6.49831 23.7183 5.07831 19.9267 5.07831C17.9697 5.07259 16.0309 5.45383 14.2217 6.20009C12.4126 6.94636 10.7689 8.04293 9.38508 9.42674C8.00128 10.8105 6.90471 12.4543 6.15844 14.2634C5.41218 16.0725 5.03094 18.0113 5.03666 19.9683C5.03072 21.9254 5.4118 23.8643 6.15799 25.6735C6.90418 27.4827 8.00074 29.1265 9.38459 30.5104C10.7684 31.8942 12.4123 32.9908 14.2215 33.737C16.0307 34.4832 17.9696 34.8643 19.9267 34.8583C27.3717 34.8583 34.1417 29.4433 34.1417 19.9683C34.1417 19.0883 34.0067 18.14 33.805 17.26Z" fill="black"/>
</svg>
