<svg width="300" height="58" viewBox="0 0 300 58" fill="none" xmlns="http://www.w3.org/2000/svg">
<path d="M9.61364 46L1.63636 19.8182H5.86364L11.5227 39.8636H11.7955L17.3864 19.8182H21.6818L27.2045 39.7955H27.4773L33.1364 19.8182H37.3636L29.3864 46H25.4318L19.7045 25.8864H19.2955L13.5682 46H9.61364ZM42.6818 46V19.8182H46.7045V46H42.6818ZM44.7273 15.4545C43.9432 15.4545 43.267 15.1875 42.6989 14.6534C42.142 14.1193 41.8636 13.4773 41.8636 12.7273C41.8636 11.9773 42.142 11.3352 42.6989 10.8011C43.267 10.267 43.9432 10 44.7273 10C45.5114 10 46.1818 10.267 46.7386 10.8011C47.3068 11.3352 47.5909 11.9773 47.5909 12.7273C47.5909 13.4773 47.3068 14.1193 46.7386 14.6534C46.1818 15.1875 45.5114 15.4545 44.7273 15.4545ZM72.6179 25.6818L69.0043 26.7045C68.777 26.1023 68.4418 25.517 67.9986 24.9489C67.5668 24.3693 66.9759 23.892 66.2259 23.517C65.4759 23.142 64.5156 22.9545 63.3452 22.9545C61.7429 22.9545 60.4077 23.3239 59.3395 24.0625C58.2827 24.7898 57.7543 25.7159 57.7543 26.8409C57.7543 27.8409 58.1179 28.6307 58.8452 29.2102C59.5724 29.7898 60.7088 30.2727 62.2543 30.6591L66.1406 31.6136C68.4815 32.1818 70.2259 33.0511 71.3736 34.2216C72.5213 35.3807 73.0952 36.875 73.0952 38.7045C73.0952 40.2045 72.6634 41.5455 71.7997 42.7273C70.9474 43.9091 69.7543 44.8409 68.2202 45.5227C66.6861 46.2045 64.902 46.5455 62.8679 46.5455C60.1974 46.5455 57.9872 45.9659 56.2372 44.8068C54.4872 43.6477 53.3793 41.9545 52.9134 39.7273L56.7315 38.7727C57.0952 40.1818 57.7827 41.2386 58.794 41.9432C59.8168 42.6477 61.152 43 62.7997 43C64.6747 43 66.1634 42.6023 67.2656 41.8068C68.3793 41 68.9361 40.0341 68.9361 38.9091C68.9361 38 68.6179 37.2386 67.9815 36.625C67.3452 36 66.3679 35.5341 65.0497 35.2273L60.6861 34.2045C58.2884 33.6364 56.527 32.7557 55.402 31.5625C54.2884 30.358 53.7315 28.8523 53.7315 27.0455C53.7315 25.5682 54.1463 24.2614 54.9759 23.125C55.8168 21.9886 56.9588 21.0966 58.402 20.4489C59.8565 19.8011 61.5043 19.4773 63.3452 19.4773C65.9361 19.4773 67.9702 20.0455 69.4474 21.1818C70.9361 22.3182 71.9929 23.8182 72.6179 25.6818ZM90.1278 46.5455C87.6051 46.5455 85.429 45.9886 83.5994 44.875C81.7812 43.75 80.3778 42.1818 79.3892 40.1705C78.4119 38.1477 77.9233 35.7955 77.9233 33.1136C77.9233 30.4318 78.4119 28.0682 79.3892 26.0227C80.3778 23.9659 81.7528 22.3636 83.5142 21.2159C85.2869 20.0568 87.3551 19.4773 89.7188 19.4773C91.0824 19.4773 92.429 19.7045 93.7585 20.1591C95.0881 20.6136 96.2983 21.3523 97.3892 22.375C98.4801 23.3864 99.3494 24.7273 99.9972 26.3977C100.645 28.0682 100.969 30.125 100.969 32.5682V34.2727H80.7869V30.7955H96.8778C96.8778 29.3182 96.5824 28 95.9915 26.8409C95.4119 25.6818 94.5824 24.767 93.5028 24.0966C92.4347 23.4261 91.1733 23.0909 89.7188 23.0909C88.1165 23.0909 86.7301 23.4886 85.5597 24.2841C84.4006 25.0682 83.5085 26.0909 82.8835 27.3523C82.2585 28.6136 81.946 29.9659 81.946 31.4091V33.7273C81.946 35.7045 82.2869 37.3807 82.9688 38.7557C83.6619 40.1193 84.6222 41.1591 85.8494 41.875C87.0767 42.5795 88.5028 42.9318 90.1278 42.9318C91.1847 42.9318 92.1392 42.7841 92.9915 42.4886C93.8551 42.1818 94.5994 41.7273 95.2244 41.125C95.8494 40.5114 96.3324 39.75 96.6733 38.8409L100.56 39.9318C100.151 41.25 99.4631 42.4091 98.4972 43.4091C97.5313 44.3977 96.3381 45.1705 94.9176 45.7273C93.4972 46.2727 91.9006 46.5455 90.1278 46.5455ZM107.088 46V19.8182H110.974V23.7727H111.247C111.724 22.4773 112.588 21.4261 113.838 20.6193C115.088 19.8125 116.497 19.4091 118.065 19.4091C118.361 19.4091 118.73 19.4148 119.173 19.4261C119.616 19.4375 119.952 19.4545 120.179 19.4773V23.5682C120.043 23.5341 119.73 23.483 119.241 23.4148C118.764 23.3352 118.259 23.2955 117.724 23.2955C116.452 23.2955 115.315 23.5625 114.315 24.0966C113.327 24.6193 112.543 25.3466 111.963 26.2784C111.395 27.1989 111.111 28.25 111.111 29.4318V46H107.088ZM134.787 46.5455C132.332 46.5455 130.219 45.9659 128.446 44.8068C126.673 43.6477 125.31 42.0511 124.355 40.017C123.401 37.983 122.923 35.6591 122.923 33.0455C122.923 30.3864 123.412 28.0398 124.389 26.0057C125.378 23.9602 126.753 22.3636 128.514 21.2159C130.287 20.0568 132.355 19.4773 134.719 19.4773C136.56 19.4773 138.219 19.8182 139.696 20.5C141.173 21.1818 142.384 22.1364 143.327 23.3636C144.27 24.5909 144.855 26.0227 145.082 27.6591H141.06C140.753 26.4659 140.071 25.4091 139.014 24.4886C137.969 23.5568 136.56 23.0909 134.787 23.0909C133.219 23.0909 131.844 23.5 130.662 24.3182C129.491 25.125 128.577 26.267 127.918 27.7443C127.27 29.2102 126.946 30.9318 126.946 32.9091C126.946 34.9318 127.264 36.6932 127.901 38.1932C128.548 39.6932 129.457 40.858 130.628 41.6875C131.81 42.517 133.196 42.9318 134.787 42.9318C135.832 42.9318 136.781 42.75 137.634 42.3864C138.486 42.0227 139.207 41.5 139.798 40.8182C140.389 40.1364 140.81 39.3182 141.06 38.3636H145.082C144.855 39.9091 144.293 41.3011 143.395 42.5398C142.509 43.767 141.332 44.7443 139.866 45.4716C138.412 46.1875 136.719 46.5455 134.787 46.5455ZM161.599 46.5455C159.236 46.5455 157.162 45.983 155.378 44.858C153.605 43.733 152.219 42.1591 151.219 40.1364C150.23 38.1136 149.736 35.75 149.736 33.0455C149.736 30.3182 150.23 27.9375 151.219 25.9034C152.219 23.8693 153.605 22.2898 155.378 21.1648C157.162 20.0398 159.236 19.4773 161.599 19.4773C163.963 19.4773 166.031 20.0398 167.804 21.1648C169.588 22.2898 170.974 23.8693 171.963 25.9034C172.963 27.9375 173.463 30.3182 173.463 33.0455C173.463 35.75 172.963 38.1136 171.963 40.1364C170.974 42.1591 169.588 43.733 167.804 44.858C166.031 45.983 163.963 46.5455 161.599 46.5455ZM161.599 42.9318C163.395 42.9318 164.872 42.4716 166.031 41.5511C167.19 40.6307 168.048 39.4205 168.605 37.9205C169.162 36.4205 169.44 34.7955 169.44 33.0455C169.44 31.2955 169.162 29.6648 168.605 28.1534C168.048 26.642 167.19 25.4205 166.031 24.4886C164.872 23.5568 163.395 23.0909 161.599 23.0909C159.804 23.0909 158.327 23.5568 157.168 24.4886C156.009 25.4205 155.151 26.642 154.594 28.1534C154.037 29.6648 153.759 31.2955 153.759 33.0455C153.759 34.7955 154.037 36.4205 154.594 37.9205C155.151 39.4205 156.009 40.6307 157.168 41.5511C158.327 42.4716 159.804 42.9318 161.599 42.9318ZM189.49 46.5455C187.308 46.5455 185.382 45.9943 183.712 44.892C182.041 43.7784 180.734 42.2102 179.791 40.1875C178.848 38.1534 178.376 35.75 178.376 32.9773C178.376 30.2273 178.848 27.8409 179.791 25.8182C180.734 23.7955 182.047 22.233 183.729 21.1307C185.411 20.0284 187.354 19.4773 189.558 19.4773C191.263 19.4773 192.609 19.7614 193.598 20.3295C194.598 20.8864 195.359 21.5227 195.882 22.2386C196.416 22.9432 196.831 23.5227 197.126 23.9773H197.467V11.0909H201.49V46H197.604V41.9773H197.126C196.831 42.4545 196.411 43.0568 195.865 43.7841C195.32 44.5 194.541 45.142 193.53 45.7102C192.518 46.267 191.172 46.5455 189.49 46.5455ZM190.036 42.9318C191.649 42.9318 193.013 42.5114 194.126 41.6705C195.24 40.8182 196.087 39.642 196.666 38.142C197.246 36.6307 197.536 34.8864 197.536 32.9091C197.536 30.9545 197.251 29.2443 196.683 27.7784C196.115 26.3011 195.274 25.1534 194.161 24.3352C193.047 23.5057 191.672 23.0909 190.036 23.0909C188.331 23.0909 186.911 23.5284 185.774 24.4034C184.649 25.267 183.803 26.4432 183.234 27.9318C182.678 29.4091 182.399 31.0682 182.399 32.9091C182.399 34.7727 182.683 36.4659 183.251 37.9886C183.831 39.5 184.683 40.7045 185.808 41.6023C186.945 42.4886 188.354 42.9318 190.036 42.9318ZM220.393 46.5455C217.871 46.5455 215.695 45.9886 213.865 44.875C212.047 43.75 210.643 42.1818 209.655 40.1705C208.678 38.1477 208.189 35.7955 208.189 33.1136C208.189 30.4318 208.678 28.0682 209.655 26.0227C210.643 23.9659 212.018 22.3636 213.78 21.2159C215.553 20.0568 217.621 19.4773 219.984 19.4773C221.348 19.4773 222.695 19.7045 224.024 20.1591C225.354 20.6136 226.564 21.3523 227.655 22.375C228.746 23.3864 229.615 24.7273 230.263 26.3977C230.911 28.0682 231.234 30.125 231.234 32.5682V34.2727H211.053V30.7955H227.143C227.143 29.3182 226.848 28 226.257 26.8409C225.678 25.6818 224.848 24.767 223.768 24.0966C222.7 23.4261 221.439 23.0909 219.984 23.0909C218.382 23.0909 216.996 23.4886 215.825 24.2841C214.666 25.0682 213.774 26.0909 213.149 27.3523C212.524 28.6136 212.212 29.9659 212.212 31.4091V33.7273C212.212 35.7045 212.553 37.3807 213.234 38.7557C213.928 40.1193 214.888 41.1591 216.115 41.875C217.342 42.5795 218.768 42.9318 220.393 42.9318C221.45 42.9318 222.405 42.7841 223.257 42.4886C224.121 42.1818 224.865 41.7273 225.49 41.125C226.115 40.5114 226.598 39.75 226.939 38.8409L230.825 39.9318C230.416 41.25 229.729 42.4091 228.763 43.4091C227.797 44.3977 226.604 45.1705 225.183 45.7273C223.763 46.2727 222.166 46.5455 220.393 46.5455Z" fill="white"/>
<path fill-rule="evenodd" clip-rule="evenodd" d="M277.716 8.8479C278.078 8.96816 278.412 9.15847 278.7 9.40794C278.988 9.65741 279.224 9.96116 279.394 10.3018C279.565 10.6425 279.666 11.0134 279.694 11.3934C279.721 11.7734 279.673 12.155 279.552 12.5164L267.952 47.3164C267.709 48.0463 267.186 48.6498 266.498 48.994C265.81 49.3383 265.014 49.3951 264.284 49.1521C263.554 48.9091 262.95 48.386 262.606 47.698C262.262 47.0101 262.205 46.2135 262.448 45.4836L274.048 10.6836C274.168 10.3221 274.358 9.98791 274.608 9.70002C274.857 9.41212 275.161 9.1762 275.502 9.00573C275.843 8.83526 276.213 8.73358 276.593 8.7065C276.973 8.67941 277.355 8.72746 277.716 8.8479V8.8479ZM258.55 18.2497C259.094 18.7935 259.399 19.531 259.399 20.3C259.399 21.069 259.094 21.8065 258.55 22.3503L251.901 29L258.55 35.6497C258.827 35.9172 259.048 36.2372 259.2 36.591C259.352 36.9448 259.432 37.3254 259.436 37.7104C259.439 38.0955 259.366 38.4774 259.22 38.8338C259.074 39.1902 258.859 39.514 258.586 39.7862C258.314 40.0585 257.99 40.2739 257.634 40.4197C257.277 40.5655 256.896 40.6389 256.51 40.6355C256.125 40.6322 255.745 40.5522 255.391 40.4002C255.037 40.2482 254.717 40.0273 254.45 39.7503L245.75 31.0503C245.206 30.5065 244.901 29.769 244.901 29C244.901 28.231 245.206 27.4935 245.75 26.9497L254.45 18.2497C254.994 17.706 255.731 17.4006 256.5 17.4006C257.269 17.4006 258.006 17.706 258.55 18.2497V18.2497ZM283.45 18.2497C283.994 17.706 284.731 17.4006 285.5 17.4006C286.269 17.4006 287.006 17.706 287.55 18.2497L296.25 26.9497C296.794 27.4935 297.099 28.231 297.099 29C297.099 29.769 296.794 30.5065 296.25 31.0503L287.55 39.7503C287.283 40.0273 286.963 40.2482 286.609 40.4002C286.255 40.5522 285.875 40.6322 285.49 40.6355C285.105 40.6389 284.723 40.5655 284.366 40.4197C284.01 40.2739 283.686 40.0585 283.414 39.7862C283.141 39.514 282.926 39.1902 282.78 38.8338C282.635 38.4774 282.561 38.0955 282.564 37.7104C282.568 37.3254 282.648 36.9448 282.8 36.591C282.952 36.2372 283.173 35.9172 283.45 35.6497L290.099 29L283.45 22.3503C282.906 21.8065 282.601 21.069 282.601 20.3C282.601 19.531 282.906 18.7935 283.45 18.2497V18.2497Z" fill="#AFC170"/>
</svg>
