<svg width="30" height="30" viewBox="0 0 30 30" fill="none" xmlns="http://www.w3.org/2000/svg">
<path d="M16.6763 1.03491C16.5204 0.723874 16.2811 0.46234 15.985 0.27957C15.689 0.0967994 15.3479 0 15 0C14.6521 0 14.311 0.0967994 14.015 0.27957C13.7189 0.46234 13.4796 0.723874 13.3237 1.03491L0.198198 27.2859C0.035337 27.6114 -0.0292764 27.9772 0.0122402 28.3388C0.0537567 28.7004 0.199609 29.0421 0.432004 29.3222C0.664399 29.6023 0.97329 29.8087 1.321 29.9163C1.66871 30.0238 2.0402 30.0278 2.39016 29.9279L11.7655 27.2484C12.1573 27.1363 12.502 26.8996 12.7473 26.5741C12.9926 26.2487 13.1252 25.8521 13.1249 25.4446V16.8736C13.1249 16.3763 13.3225 15.8994 13.6741 15.5478C14.0258 15.1961 14.5027 14.9986 15 14.9986C15.4973 14.9986 15.9742 15.1961 16.3259 15.5478C16.6775 15.8994 16.8751 16.3763 16.8751 16.8736V25.4446C16.8748 25.8521 17.0074 26.2487 17.2527 26.5741C17.498 26.8996 17.8427 27.1363 18.2345 27.2484L27.6098 29.926C27.9597 30.0262 28.3311 30.0224 28.6789 29.9151C29.0266 29.8078 29.3356 29.6016 29.5682 29.3217C29.8008 29.0419 29.9469 28.7003 29.9887 28.3388C30.0305 27.9773 29.9662 27.6115 29.8037 27.2859L16.6782 1.03491H16.6763Z" fill="black"/>
</svg>
