<svg width="53" height="53" viewBox="0 0 53 53" fill="none" xmlns="http://www.w3.org/2000/svg">
<path fill-rule="evenodd" clip-rule="evenodd" d="M13.25 5.30005C13.9528 5.30005 14.6268 5.57924 15.1238 6.07622C15.6208 6.57319 15.9 7.24723 15.9 7.95005V10.6H18.55C19.2528 10.6 19.9268 10.8792 20.4238 11.3762C20.9208 11.8732 21.2 12.5472 21.2 13.25C21.2 13.9529 20.9208 14.6269 20.4238 15.1239C19.9268 15.6209 19.2528 15.9 18.55 15.9H15.9V18.55C15.9 19.2529 15.6208 19.9269 15.1238 20.4239C14.6268 20.9209 13.9528 21.2 13.25 21.2C12.5472 21.2 11.8731 20.9209 11.3762 20.4239C10.8792 19.9269 10.6 19.2529 10.6 18.55V15.9H7.94999C7.24716 15.9 6.57313 15.6209 6.07615 15.1239C5.57918 14.6269 5.29999 13.9529 5.29999 13.25C5.29999 12.5472 5.57918 11.8732 6.07615 11.3762C6.57313 10.8792 7.24716 10.6 7.94999 10.6H10.6V7.95005C10.6 7.24723 10.8792 6.57319 11.3762 6.07622C11.8731 5.57924 12.5472 5.30005 13.25 5.30005ZM13.25 31.8C13.9528 31.8 14.6268 32.0792 15.1238 32.5762C15.6208 33.0732 15.9 33.7472 15.9 34.4501V37.1H18.55C19.2528 37.1 19.9268 37.3792 20.4238 37.8762C20.9208 38.3732 21.2 39.0472 21.2 39.75C21.2 40.4529 20.9208 41.1269 20.4238 41.6239C19.9268 42.1209 19.2528 42.4001 18.55 42.4001H15.9V45.05C15.9 45.7529 15.6208 46.4269 15.1238 46.9239C14.6268 47.4209 13.9528 47.7001 13.25 47.7001C12.5472 47.7001 11.8731 47.4209 11.3762 46.9239C10.8792 46.4269 10.6 45.7529 10.6 45.05V42.4001H7.94999C7.24716 42.4001 6.57313 42.1209 6.07615 41.6239C5.57918 41.1269 5.29999 40.4529 5.29999 39.75C5.29999 39.0472 5.57918 38.3732 6.07615 37.8762C6.57313 37.3792 7.24716 37.1 7.94999 37.1H10.6V34.4501C10.6 33.7472 10.8792 33.0732 11.3762 32.5762C11.8731 32.0792 12.5472 31.8 13.25 31.8ZM31.8 5.30005C32.3848 5.29986 32.9533 5.49314 33.4168 5.84976C33.8803 6.20638 34.2128 6.70631 34.3625 7.27165L37.4869 19.08L46.375 24.2051C46.7778 24.4377 47.1123 24.7723 47.3449 25.1751C47.5774 25.5779 47.6999 26.0349 47.6999 26.5C47.6999 26.9652 47.5774 27.4222 47.3449 27.825C47.1123 28.2278 46.7778 28.5624 46.375 28.795L37.4869 33.9227L34.3599 45.7285C34.2099 46.2932 33.8774 46.7926 33.4142 47.1489C32.951 47.5051 32.383 47.6983 31.7987 47.6983C31.2143 47.6983 30.6463 47.5051 30.1831 47.1489C29.7199 46.7926 29.3874 46.2932 29.2374 45.7285L26.1131 33.92L17.225 28.795C16.8222 28.5624 16.4877 28.2278 16.2551 27.825C16.0225 27.4222 15.9001 26.9652 15.9001 26.5C15.9001 26.0349 16.0225 25.5779 16.2551 25.1751C16.4877 24.7723 16.8222 24.4377 17.225 24.2051L26.1131 19.0774L29.2401 7.27165C29.3897 6.70675 29.7218 6.20714 30.1848 5.85056C30.6478 5.49399 31.2156 5.30044 31.8 5.30005Z" fill="#AFC170"/>
</svg>
